{"title":"Legion[2010]R5[LINE AUDIO]- Xvid -ExtraTorrent","uid":5387104,"size":726299841,"categoryP":"video","categoryS":"movies","magnet":"?xt=urn:btih:1123c9e2d15663adba27f8440e086e8c6d092726&amp;dn=Legion%5B2010%5DR5%5BLINE+AUDIO%5D-+Xvid+-ExtraTorrent&amp;tr=udp%3A%2F%2Ftracker.openbittorrent.com%3A80&amp;tr=udp%3A%2F%2Fopen.demonii.com%3A1337&amp;tr=udp%3A%2F%2Ftracker.coppersurfer.tk%3A6969&amp;tr=udp%3A%2F%2Fexodus.desync.com%3A6969","seeders":0,"leechers":1,"uploader":"SaM","files":54,"time":1266930223,"description":"extratorrent.com &lt;a href=&quot;\nhttp://extratorrent.com/torrent/2186384/&quot; rel=&quot;nofollow&quot; target=&quot;_NEW&quot;&gt;\nhttp://extratorrent.com/torrent/2186384/&lt;/a&gt;\n\nLegion - 2010 - R5 - (COMPLETE ENGLISH RAW LINE AUDIO) - Xvid - Ghostman + Greenfrogr\n\ninfo\nFormat : AVI\nFormat/Info : Audio Video Interleave\nFile size : 701 MiB\nDuration : 1h 35mn\nOverall bit rate : 1 021 Kbps\nWriting application : VirtualDubMod 1.5.10.3 | www.virtualdub-fr.org || (build 2550/release)\nWriting library : VirtualDubMod build 2550/release\n\n\n\nVideo\nID : 0\nFormat : MPEG-4 Visual\nFormat profile : AdvancedSimple@L5\nFormat settings, BVOP : Yes\nFormat settings, QPel : No\nFormat settings, GMC : No warppoints\nFormat settings, Matrix : Default (H.263)\nMuxing mode : Packed bitstream\nCodec ID : XVID\nCodec ID/Hint : XviD\nDuration : 1h 35mn\nBit rate : 795 Kbps\nWidth : 672 pixels\nHeight : 288 pixels\nDisplay aspect ratio : 2.35:1\nFrame rate : 25.000 fps\nResolution : 24 bits\nColorimetry : 4:2:0\nScan type : Progressive\nBits/(Pixel*Frame) : 0.164\nStream size : 545 MiB (78%)\nWriting library : XviD 1.2.1 (UTC 2008-12-04)\n\nAudio\nID : 1\nFormat : MPEG Audio\nFormat version : Version 1\nFormat profile : Layer 3\nCodec ID : 55\nCodec ID/Hint : MP3\nDuration : 1h 35mn\nBit rate mode : Variable\nBit rate : 214 Kbps\nChannel(s) : 2 channels\nSampling rate : 48.0 KHz\nResolution : 16 bits\nStream size : 147 MiB (21%)\nAlignment : Aligned on interleaves\nInterleave, duration : 24 ms (0.60 video frame)\nInterleave, preload duration : 559 ms\n\n\n\n\nplot\nAn out-of-the-way diner becomes the unlikely battleground for the survival of the human race. When God loses faith in humankind...\n\n\n\n\ncast\n\nPaul Bettany ... Michael\n\nLucas Black ... Jeep Hanson\n\nTyrese Gibson ... Kyle Williams\n\nAdrianne Palicki ... Charlie\n\nCharles S. Dutton ... Percy Walker\n\nKevin Durand ... Gabriel\n\nJon Tenney ... Howard Anderson\n\nWilla Holland ... Audrey Anderson\n\nKate Walsh ... Sandra Anderson\n\nDennis Quaid ... Bob Hanson\nJeanette Miller ... Gladys Foster\nCameron Harlow ... Minivan Boy\n\nDoug Jones ... Ice Cream Man\n\nJosh Stamberg ... Burton\n\nYancey Arias ... Estevez","torrent":{"xt":"urn:btih:1123c9e2d15663adba27f8440e086e8c6d092726","amp;dn":"Legion%5B2010%5DR5%5BLINE+AUDIO%5D-+Xvid+-ExtraTorrent","amp;tr":["udp%3A%2F%2Ftracker.openbittorrent.com%3A80","udp%3A%2F%2Fopen.demonii.com%3A1337","udp%3A%2F%2Ftracker.coppersurfer.tk%3A6969","udp%3A%2F%2Fexodus.desync.com%3A6969"],"infoHash":"1123c9e2d15663adba27f8440e086e8c6d092726","infoHashBuffer":{"type":"Buffer","data":[17,35,201,226,209,86,99,173,186,39,248,68,14,8,110,140,109,9,39,38]},"announce":[],"urlList":[]}}